<svg width="20" height="20" viewBox="0 0 20 20" fill="none" xmlns="http://www.w3.org/2000/svg">
<path d="M10.8858 5.63328C13.0577 6.11891 13.8279 6.90796 14.5236 9.09784M11.752 2.86163C14.97 4.11391 16.087 5.31439 17.2953 8.2317M8.11424 7.01911L6.0427 2.5801C5.84771 2.16226 5.35048 1.98595 4.96727 2.24237C3.92411 2.94038 2.67469 4.1073 2.22449 4.94037C1.4787 6.32039 0.665436 11.1766 5.68905 15.334C9.70794 18.66 14.5236 18.4522 15.9094 17.7592C16.6086 17.4097 17.4954 16.1753 17.9975 15.3043C18.2093 14.9369 18.0513 14.4901 17.6772 14.2905L13.1378 11.8695L10.4459 14.2623C10.1891 14.4906 9.81704 14.5383 9.51443 14.3755C7.56586 13.327 6.42241 12.3963 5.53423 10.6242C5.38768 10.3318 5.44651 9.98094 5.6654 9.73791L8.11424 7.01911Z" stroke="#2A3143" stroke-width="1.66299" stroke-linecap="round" stroke-linejoin="round"/>
</svg>
