<svg width="20" height="18" viewBox="0 0 20 18" fill="none" xmlns="http://www.w3.org/2000/svg">
<path d="M9.91797 12.666C11.4368 12.666 12.668 11.4348 12.668 9.91602C12.668 8.39723 11.4368 7.16602 9.91797 7.16602C8.39919 7.16602 7.16797 8.39723 7.16797 9.91602C7.16797 11.4348 8.39919 12.666 9.91797 12.666Z" stroke="#FF6929" stroke-width="1.5"/>
<path d="M7.87983 17.25H11.9535C14.8144 17.25 16.2453 17.25 17.2729 16.5763C17.7164 16.2858 18.0983 15.9108 18.3967 15.4726C19.0833 14.4643 19.0833 13.059 19.0833 10.2504C19.0833 7.44171 19.0833 6.03646 18.3967 5.02813C18.0983 4.58995 17.7164 4.21491 17.2729 3.92446C16.6129 3.49088 15.7861 3.33596 14.5202 3.28096C13.9161 3.28096 13.3963 2.83179 13.2781 2.24971C13.1877 1.82334 12.9529 1.44124 12.6134 1.168C12.2738 0.894753 11.8503 0.747117 11.4145 0.750043H8.41883C7.51317 0.750043 6.73308 1.37796 6.55525 2.24971C6.437 2.83179 5.91725 3.28096 5.31317 3.28096C4.04817 3.33596 3.22133 3.49179 2.56042 3.92446C2.11724 4.21501 1.73567 4.59004 1.4375 5.02813C0.75 6.03646 0.75 7.44079 0.75 10.2504C0.75 13.06 0.75 14.4634 1.43658 15.4726C1.73358 15.909 2.11492 16.2839 2.56042 16.5763C3.588 17.25 5.01892 17.25 7.87983 17.25Z" stroke="#FF6929" stroke-width="1.5"/>
<path d="M16.3346 7.16602H15.418" stroke="#FF6929" stroke-width="1.5" stroke-linecap="round"/>
</svg>
