<svg width="12" height="10" viewBox="0 0 12 10" fill="none" xmlns="http://www.w3.org/2000/svg">
<path d="M0.300781 0.749358C0.461409 0.599832 0.879042 0.300781 1.26455 0.300781C1.65006 0.300781 2.06769 0.674595 2.22832 0.973646" stroke="#4B6751" stroke-width="0.6" stroke-linecap="round"/>
<path d="M0.878752 4.11441L1.7465 3.21726L3.19215 3.66583L3.67403 2.3201L4.6378 2.76868L5.11969 2.3201C4.79843 1.722 3.77041 0.615513 2.22838 0.974374C2.07121 1.01095 1.93056 1.05716 1.80469 1.11129C0.695676 1.58823 0.734542 2.68012 0.734542 3.21727C0.734542 3.66583 0.878752 4.11441 0.878752 4.11441Z" fill="#4B6751"/>
<path d="M1.7465 3.21726L0.878752 4.11441C1.48914 5.75919 3.28817 9.13848 5.60122 9.49734C7.67607 9.81924 9.90601 9.56364 11.0389 8.86003C11.1838 8.77004 11.1218 8.56819 10.9531 8.54248C7.49163 8.0147 7.02831 6.32274 6.56498 5.46015C5.51629 3.50774 5.60122 3.21727 5.11969 2.3201L4.6378 2.76868L3.67403 2.3201L3.19215 3.66583L1.7465 3.21726Z" fill="#DD3749"/>
</svg>
