<svg width="14" height="14" viewBox="0 0 14 14" fill="none" xmlns="http://www.w3.org/2000/svg">
<path fill-rule="evenodd" clip-rule="evenodd" d="M8.46861 6.38624C9.51791 6.38624 10.396 5.65325 10.6188 4.67137H12.3883C12.6589 4.67137 12.8783 4.452 12.8783 4.1814C12.8783 3.9108 12.6589 3.69144 12.3883 3.69144H10.6188C10.396 2.70955 9.51791 1.97656 8.46861 1.97656C7.41931 1.97656 6.5412 2.70955 6.3184 3.69144H1.60911C1.33851 3.69144 1.11914 3.9108 1.11914 4.1814C1.11914 4.452 1.33851 4.67137 1.60911 4.67137H6.3184C6.5412 5.65325 7.41931 6.38624 8.46861 6.38624ZM8.46861 5.40631C9.14511 5.40631 9.69352 4.8579 9.69352 4.1814C9.69352 3.5049 9.14511 2.95649 8.46861 2.95649C7.79211 2.95649 7.2437 3.5049 7.2437 4.1814C7.2437 4.8579 7.79211 5.40631 8.46861 5.40631Z" fill="#2A3143"/>
<path fill-rule="evenodd" clip-rule="evenodd" d="M5.52882 12.0208C4.47952 12.0208 3.60142 11.2878 3.37862 10.306H1.60911C1.33851 10.306 1.11914 10.0866 1.11914 9.81599C1.11914 9.54539 1.33851 9.32603 1.60911 9.32603H3.37862C3.60142 8.34415 4.47952 7.61115 5.52882 7.61115C6.57812 7.61115 7.45622 8.34415 7.67903 9.32603H12.3883C12.6589 9.32603 12.8783 9.54539 12.8783 9.81599C12.8783 10.0866 12.6589 10.306 12.3883 10.306H7.67903C7.45622 11.2878 6.57812 12.0208 5.52882 12.0208ZM5.52882 11.0409C4.85232 11.0409 4.30391 10.4925 4.30391 9.81599C4.30391 9.13949 4.85232 8.59108 5.52882 8.59108C6.20532 8.59108 6.75373 9.13949 6.75373 9.81599C6.75373 10.4925 6.20532 11.0409 5.52882 11.0409Z" fill="#2A3143"/>
</svg>
