<svg width="70" height="68" viewBox="0 0 70 68" fill="none" xmlns="http://www.w3.org/2000/svg">
<path d="M26 20L35 13L44 20V31C44 31.5304 43.7893 32.0391 43.4142 32.4142C43.0391 32.7893 42.5304 33 42 33H28C27.4696 33 26.9609 32.7893 26.5858 32.4142C26.2107 32.0391 26 31.5304 26 31V20Z" stroke="#757575" stroke-width="2" stroke-linecap="round" stroke-linejoin="round"/>
<path d="M32 33V23H38V33" stroke="#757575" stroke-width="2" stroke-linecap="round" stroke-linejoin="round"/>
<path d="M24.5659 43.66V52H23.1979V48.352H19.2739V52H17.9059V43.66H19.2739V47.236H23.1979V43.66H24.5659ZM29.2348 52.108C28.6108 52.108 28.0468 51.968 27.5428 51.688C27.0388 51.4 26.6428 51 26.3548 50.488C26.0668 49.968 25.9228 49.368 25.9228 48.688C25.9228 48.016 26.0708 47.42 26.3668 46.9C26.6628 46.38 27.0668 45.98 27.5788 45.7C28.0908 45.42 28.6628 45.28 29.2948 45.28C29.9268 45.28 30.4988 45.42 31.0108 45.7C31.5228 45.98 31.9268 46.38 32.2228 46.9C32.5188 47.42 32.6668 48.016 32.6668 48.688C32.6668 49.36 32.5148 49.956 32.2108 50.476C31.9068 50.996 31.4908 51.4 30.9628 51.688C30.4428 51.968 29.8668 52.108 29.2348 52.108ZM29.2348 50.92C29.5868 50.92 29.9148 50.836 30.2188 50.668C30.5308 50.5 30.7828 50.248 30.9748 49.912C31.1668 49.576 31.2628 49.168 31.2628 48.688C31.2628 48.208 31.1708 47.804 30.9868 47.476C30.8028 47.14 30.5588 46.888 30.2548 46.72C29.9508 46.552 29.6228 46.468 29.2708 46.468C28.9188 46.468 28.5908 46.552 28.2868 46.72C27.9908 46.888 27.7548 47.14 27.5788 47.476C27.4028 47.804 27.3148 48.208 27.3148 48.688C27.3148 49.4 27.4948 49.952 27.8548 50.344C28.2228 50.728 28.6828 50.92 29.2348 50.92ZM42.0231 45.28C42.5431 45.28 43.0071 45.388 43.4151 45.604C43.8311 45.82 44.1551 46.14 44.3871 46.564C44.6271 46.988 44.7471 47.5 44.7471 48.1V52H43.3911V48.304C43.3911 47.712 43.2431 47.26 42.9471 46.948C42.6511 46.628 42.2471 46.468 41.7351 46.468C41.2231 46.468 40.8151 46.628 40.5111 46.948C40.2151 47.26 40.0671 47.712 40.0671 48.304V52H38.7111V48.304C38.7111 47.712 38.5631 47.26 38.2671 46.948C37.9711 46.628 37.5671 46.468 37.0551 46.468C36.5431 46.468 36.1351 46.628 35.8311 46.948C35.5351 47.26 35.3871 47.712 35.3871 48.304V52H34.0191V45.388H35.3871V46.144C35.6111 45.872 35.8951 45.66 36.2391 45.508C36.5831 45.356 36.9511 45.28 37.3431 45.28C37.8711 45.28 38.3431 45.392 38.7591 45.616C39.1751 45.84 39.4951 46.164 39.7191 46.588C39.9191 46.188 40.2311 45.872 40.6551 45.64C41.0791 45.4 41.5351 45.28 42.0231 45.28ZM52.5479 48.532C52.5479 48.78 52.5319 49.004 52.4999 49.204H47.4479C47.4879 49.732 47.6839 50.156 48.0359 50.476C48.3879 50.796 48.8199 50.956 49.3319 50.956C50.0679 50.956 50.5879 50.648 50.8919 50.032H52.3679C52.1679 50.64 51.8039 51.14 51.2759 51.532C50.7559 51.916 50.1079 52.108 49.3319 52.108C48.6999 52.108 48.1319 51.968 47.6279 51.688C47.1319 51.4 46.7399 51 46.4519 50.488C46.1719 49.968 46.0319 49.368 46.0319 48.688C46.0319 48.008 46.1679 47.412 46.4399 46.9C46.7199 46.38 47.1079 45.98 47.6039 45.7C48.1079 45.42 48.6839 45.28 49.3319 45.28C49.9559 45.28 50.5119 45.416 50.9999 45.688C51.4879 45.96 51.8679 46.344 52.1399 46.84C52.4119 47.328 52.5479 47.892 52.5479 48.532ZM51.1199 48.1C51.1119 47.596 50.9319 47.192 50.5799 46.888C50.2279 46.584 49.7919 46.432 49.2719 46.432C48.7999 46.432 48.3959 46.584 48.0599 46.888C47.7239 47.184 47.5239 47.588 47.4599 48.1H51.1199Z" fill="#757575"/>
</svg>
