<svg width="18" height="18" viewBox="0 0 18 18" fill="none" xmlns="http://www.w3.org/2000/svg">
<path d="M12 0.9C11.25 0.9 10.65 1.5 10.65 2.25C10.65 3 11.25 3.6 12 3.6C12.75 3.6 13.35 3 13.35 2.25C13.35 1.5 12.75 0.9 12 0.9ZM9.3 3.075C8.9475 3.075 8.625 3.2175 8.4 3.45L5.625 6.2175C5.3925 6.45 5.25 6.75 5.25 7.125C5.25 7.5975 5.4975 7.995 5.8875 8.2275L8.4 9.75V13.5H9.75V8.625L8.0625 7.3875L9.8025 5.625L11.1 7.5H14.25V6.15H11.85L10.395 3.6975C10.1775 3.3225 9.75 3.075 9.3 3.075ZM7.5 2.25H2.25C1.8375 2.25 1.5 1.9125 1.5 1.5C1.5 1.0875 1.8375 0.75 2.25 0.75H9.5925C9.435 1.005 9.3075 1.2825 9.24 1.5825C8.595 1.5975 7.9875 1.8375 7.5 2.25ZM3.75 9C1.68 9 0 10.68 0 12.75C0 14.82 1.68 16.5 3.75 16.5C5.82 16.5 7.5 14.82 7.5 12.75C7.5 10.68 5.82 9 3.75 9ZM3.75 15.375C2.3025 15.375 1.125 14.1975 1.125 12.75C1.125 11.3025 2.3025 10.125 3.75 10.125C5.1975 10.125 6.375 11.3025 6.375 12.75C6.375 14.1975 5.1975 15.375 3.75 15.375ZM14.25 9C12.18 9 10.5 10.68 10.5 12.75C10.5 14.82 12.18 16.5 14.25 16.5C16.32 16.5 18 14.82 18 12.75C18 10.68 16.32 9 14.25 9ZM14.25 15.375C12.8025 15.375 11.625 14.1975 11.625 12.75C11.625 11.3025 12.8025 10.125 14.25 10.125C15.6975 10.125 16.875 11.3025 16.875 12.75C16.875 14.1975 15.6975 15.375 14.25 15.375ZM3.99 8.25H0.75C0.336 8.25 0 7.9125 0 7.5C0 7.0875 0.336 6.75 0.75 6.75H3.7875C3.7725 6.87 3.75 6.9975 3.75 7.125C3.75 7.5225 3.84 7.905 3.99 8.25ZM4.5 5.25H1.5C1.0875 5.25 0.75 4.9125 0.75 4.5C0.75 4.0875 1.0875 3.75 1.5 3.75H5.9775L4.5675 5.1525C4.5375 5.1825 4.5 5.22 4.5 5.25Z" fill="#C71717"/>
</svg>
