<svg width="20" height="20" viewBox="0 0 20 20" fill="none" xmlns="http://www.w3.org/2000/svg">
<path fill-rule="evenodd" clip-rule="evenodd" d="M13.6846 5.12378C13.6846 3.21465 12.0244 1.66699 9.97637 1.66699C7.92835 1.66699 6.2681 3.21465 6.2681 5.12378V9.0744C6.2681 10.9835 7.92835 12.5312 9.97637 12.5312C12.0244 12.5312 13.6846 10.9835 13.6846 9.0744V5.12378ZM12.0954 5.12378C12.0954 4.03285 11.1467 3.14847 9.97637 3.14847C8.80608 3.14847 7.85736 4.03285 7.85736 5.12378V9.0744C7.85736 10.1653 8.80608 11.0497 9.97637 11.0497C11.1467 11.0497 12.0954 10.1653 12.0954 9.0744V5.12378Z" fill="#D94148"/>
<path d="M16.0176 9.36185C16.4485 9.41758 16.7538 9.79004 16.6453 10.1827C16.3036 11.4188 15.5724 12.5377 14.5375 13.3905C13.5128 14.2349 12.2466 14.7718 10.9034 14.9419V17.4695C10.9034 17.9467 10.4884 18.3337 9.97637 18.3337C9.46437 18.3337 9.04931 17.9467 9.04931 17.4695V14.9419C7.77579 14.7806 6.56865 14.2892 5.57036 13.5145C4.50885 12.6908 3.74234 11.5926 3.36143 10.3665C3.24042 9.97701 3.53373 9.59627 3.96266 9.52865C4.3916 9.46103 4.79254 9.73304 4.92766 10.1185C5.23644 10.9993 5.80616 11.7868 6.57824 12.3859C7.55329 13.1425 8.78667 13.5488 10.0552 13.5312C11.3237 13.5137 12.5436 13.0735 13.4942 12.2902C14.2468 11.67 14.7912 10.8671 15.0718 9.97815C15.1946 9.58912 15.5867 9.30613 16.0176 9.36185Z" fill="#D94148"/>
</svg>
