<svg width="20" height="20" viewBox="0 0 20 20" fill="none" xmlns="http://www.w3.org/2000/svg">
<path d="M12.0846 2.90388C12.0846 4.04705 11.1519 4.97377 10.0013 4.97377C8.85071 4.97377 7.91797 4.04705 7.91797 2.90388C7.91797 1.76071 8.85071 0.833984 10.0013 0.833984C11.1519 0.833984 12.0846 1.76071 12.0846 2.90388Z" fill="#222222"/>
<path d="M12.0846 10.0007C12.0846 11.1438 11.1519 12.0705 10.0013 12.0705C8.85071 12.0705 7.91797 11.1438 7.91797 10.0007C7.91797 8.85748 8.85071 7.93076 10.0013 7.93076C11.1519 7.93076 12.0846 8.85748 12.0846 10.0007Z" fill="#222222"/>
<path d="M10.0013 19.1673C11.1519 19.1673 12.0846 18.2406 12.0846 17.0974C12.0846 15.9543 11.1519 15.0275 10.0013 15.0275C8.85071 15.0275 7.91797 15.9543 7.91797 17.0974C7.91797 18.2406 8.85071 19.1673 10.0013 19.1673Z" fill="#222222"/>
</svg>
