<svg width="14" height="14" viewBox="0 0 14 14" fill="none" xmlns="http://www.w3.org/2000/svg">
<path d="M6.22625 0.945073C6.62634 0.456391 7.37366 0.45639 7.77375 0.945073L7.95808 1.17021C8.23001 1.50236 8.6836 1.6239 9.08517 1.47222L9.35737 1.3694C9.94821 1.14624 10.5954 1.5199 10.6976 2.14316L10.7446 2.43029C10.814 2.85391 11.1461 3.18596 11.5697 3.25539L11.8568 3.30245C12.4801 3.4046 12.8538 4.05179 12.6306 4.64263L12.5278 4.91482C12.3761 5.3164 12.4976 5.76999 12.8298 6.04192L13.0549 6.22625C13.5436 6.62634 13.5436 7.37366 13.0549 7.77375L12.8298 7.95808C12.4976 8.23001 12.3761 8.6836 12.5278 9.08517L12.6306 9.35737C12.8538 9.94821 12.4801 10.5954 11.8568 10.6976L11.5697 10.7446C11.1461 10.814 10.814 11.1461 10.7446 11.5697L10.6976 11.8568C10.5954 12.4801 9.94821 12.8538 9.35737 12.6306L9.08518 12.5278C8.6836 12.3761 8.23001 12.4976 7.95808 12.8298L7.77375 13.0549C7.37366 13.5436 6.62634 13.5436 6.22625 13.0549L6.04192 12.8298C5.76999 12.4976 5.3164 12.3761 4.91482 12.5278L4.64263 12.6306C4.05179 12.8538 3.4046 12.4801 3.30245 11.8568L3.25539 11.5697C3.18596 11.1461 2.85391 10.814 2.43029 10.7446L2.14316 10.6976C1.5199 10.5954 1.14624 9.94821 1.3694 9.35737L1.47222 9.08517C1.6239 8.6836 1.50236 8.23001 1.17021 7.95808L0.945073 7.77375C0.456391 7.37366 0.45639 6.62634 0.945073 6.22625L1.17021 6.04192C1.50236 5.76999 1.6239 5.3164 1.47222 4.91483L1.3694 4.64263C1.14624 4.05179 1.5199 3.4046 2.14315 3.30245L2.43029 3.25539C2.85391 3.18596 3.18596 2.85391 3.25539 2.43029L3.30245 2.14316C3.4046 1.5199 4.05179 1.14624 4.64263 1.3694L4.91482 1.47222C5.3164 1.6239 5.76999 1.50236 6.04192 1.17021L6.22625 0.945073Z" fill="#8692A9"/>
<path d="M9.49392 4.50521C9.79774 4.80884 9.79774 5.30141 9.49392 5.60503L5.60503 9.49392C5.30122 9.79774 4.80903 9.79774 4.50521 9.49392C4.20139 9.19029 4.20139 8.69773 4.50521 8.3941L8.3941 4.50521C8.69792 4.20139 9.1901 4.20139 9.49392 4.50521Z" fill="white"/>
<path d="M6.41623 5.44401C6.41623 5.98101 5.98101 6.41623 5.44401 6.41623C4.90701 6.41623 4.47179 5.98101 4.47179 5.44401C4.47179 4.90701 4.90701 4.47179 5.44401 4.47179C5.98101 4.47179 6.41623 4.90701 6.41623 5.44401Z" fill="white"/>
<path d="M8.55512 9.52734C9.09212 9.52734 9.52734 9.09212 9.52734 8.55512C9.52734 8.01812 9.09212 7.5829 8.55512 7.5829C8.01812 7.5829 7.5829 8.01812 7.5829 8.55512C7.5829 9.09212 8.01812 9.52734 8.55512 9.52734Z" fill="white"/>
</svg>
