<svg width="70" height="68" viewBox="0 0 70 68" fill="none" xmlns="http://www.w3.org/2000/svg">
<g clip-path="url(#clip0_304_4308)">
<path d="M29.5625 16.75C29.8041 16.75 30 16.9459 30 17.1875C30 17.4291 29.8041 17.625 29.5625 17.625C29.3209 17.625 29.125 17.4291 29.125 17.1875C29.125 16.9459 29.3209 16.75 29.5625 16.75Z" fill="#7A7F94" stroke="#757575"/>
<path d="M29.5625 20.5C29.8041 20.5 30 20.6959 30 20.9375C30 21.1791 29.8041 21.375 29.5625 21.375C29.3209 21.375 29.125 21.1791 29.125 20.9375C29.125 20.6959 29.3209 20.5 29.5625 20.5Z" fill="#7A7F94" stroke="#757575"/>
<path d="M29.5625 25.625C30.0803 25.625 30.5 25.2053 30.5 24.6875C30.5 24.1697 30.0803 23.75 29.5625 23.75C29.0447 23.75 28.625 24.1697 28.625 24.6875C28.625 25.2053 29.0447 25.625 29.5625 25.625Z" fill="#7A7F94"/>
<path d="M36.6875 18.125H33.3125C32.7947 18.125 32.375 17.7053 32.375 17.1875C32.375 16.6697 32.7947 16.25 33.3125 16.25H36.6875C37.2053 16.25 37.625 16.6697 37.625 17.1875C37.625 17.7053 37.2053 18.125 36.6875 18.125Z" fill="#7A7F94"/>
<path d="M34.8125 21.875H33.3125C32.7947 21.875 32.375 21.4553 32.375 20.9375C32.375 20.4197 32.7947 20 33.3125 20H34.8125C35.3303 20 35.75 20.4197 35.75 20.9375C35.75 21.4553 35.3303 21.875 34.8125 21.875Z" fill="#7A7F94"/>
<path d="M34.8125 25.625H33.3125C32.7947 25.625 32.375 25.2053 32.375 24.6875C32.375 24.1697 32.7947 23.75 33.3125 23.75H34.8125C35.3303 23.75 35.75 24.1697 35.75 24.6875C35.75 25.2053 35.3303 25.625 34.8125 25.625Z" fill="#7A7F94"/>
<path d="M40.4375 29.375C39.9197 29.375 39.5 29.7947 39.5 30.3125V32.1875C39.5 32.7044 39.0794 33.125 38.5625 33.125C38.0456 33.125 37.625 32.7044 37.625 32.1875C37.625 30.6367 36.3633 29.375 34.8125 29.375H26.75V14.75C26.75 13.7161 27.5911 12.875 28.625 12.875H37.625C38.6589 12.875 39.5 13.7161 39.5 14.75V15.3125C39.5 15.8303 39.9197 16.25 40.4375 16.25C40.9553 16.25 41.375 15.8303 41.375 15.3125V14.75C41.375 12.6823 39.6927 11 37.625 11H28.625C26.5573 11 24.875 12.6823 24.875 14.75V29.375H23.9375C23.4197 29.375 23 29.7947 23 30.3125V32.1875C23 33.7383 24.2617 35 25.8125 35H38.5625C40.1133 35 41.375 33.7383 41.375 32.1875V30.3125C41.375 29.7947 40.9553 29.375 40.4375 29.375ZM25.8125 33.125C25.2956 33.125 24.875 32.7044 24.875 32.1875V31.25H34.8125C35.3294 31.25 35.75 31.6706 35.75 32.1875C35.75 32.516 35.8066 32.8317 35.9106 33.125H25.8125Z" fill="#7A7F94"/>
<path d="M44.1875 18.125H40.4375C38.8867 18.125 37.625 19.3867 37.625 20.9375V24.6875C37.625 26.2383 38.8867 27.5 40.4375 27.5H44.1875C45.7383 27.5 47 26.2383 47 24.6875V20.9375C47 19.3867 45.7383 18.125 44.1875 18.125ZM45.125 24.6875C45.125 25.2044 44.7044 25.625 44.1875 25.625H40.4375C39.9206 25.625 39.5 25.2044 39.5 24.6875V20.9375C39.5 20.4206 39.9206 20 40.4375 20H41.375V20.9375C41.375 21.4553 41.7947 21.875 42.3125 21.875C42.8303 21.875 43.25 21.4553 43.25 20.9375V20H44.1875C44.7044 20 45.125 20.4206 45.125 20.9375V24.6875Z" fill="#7A7F94"/>
</g>
<path d="M19.4188 52.084C18.6428 52.084 17.9268 51.904 17.2708 51.544C16.6228 51.176 16.1068 50.668 15.7228 50.02C15.3468 49.364 15.1588 48.628 15.1588 47.812C15.1588 46.996 15.3468 46.264 15.7228 45.616C16.1068 44.968 16.6228 44.464 17.2708 44.104C17.9268 43.736 18.6428 43.552 19.4188 43.552C20.2028 43.552 20.9188 43.736 21.5668 44.104C22.2228 44.464 22.7388 44.968 23.1148 45.616C23.4908 46.264 23.6788 46.996 23.6788 47.812C23.6788 48.628 23.4908 49.364 23.1148 50.02C22.7388 50.668 22.2228 51.176 21.5668 51.544C20.9188 51.904 20.2028 52.084 19.4188 52.084ZM19.4188 50.896C19.9708 50.896 20.4628 50.772 20.8948 50.524C21.3268 50.268 21.6628 49.908 21.9028 49.444C22.1508 48.972 22.2748 48.428 22.2748 47.812C22.2748 47.196 22.1508 46.656 21.9028 46.192C21.6628 45.728 21.3268 45.372 20.8948 45.124C20.4628 44.876 19.9708 44.752 19.4188 44.752C18.8668 44.752 18.3748 44.876 17.9428 45.124C17.5108 45.372 17.1708 45.728 16.9228 46.192C16.6828 46.656 16.5628 47.196 16.5628 47.812C16.5628 48.428 16.6828 48.972 16.9228 49.444C17.1708 49.908 17.5108 50.268 17.9428 50.524C18.3748 50.772 18.8668 50.896 19.4188 50.896ZM26.393 46.348C26.593 46.012 26.857 45.752 27.185 45.568C27.521 45.376 27.917 45.28 28.373 45.28V46.696H28.025C27.489 46.696 27.081 46.832 26.801 47.104C26.529 47.376 26.393 47.848 26.393 48.52V52H25.025V45.388H26.393V46.348ZM29.1745 48.664C29.1745 48 29.3105 47.412 29.5825 46.9C29.8625 46.388 30.2385 45.992 30.7105 45.712C31.1905 45.424 31.7225 45.28 32.3065 45.28C32.7385 45.28 33.1625 45.376 33.5785 45.568C34.0025 45.752 34.3385 46 34.5865 46.312V43.12H35.9665V52H34.5865V51.004C34.3625 51.324 34.0505 51.588 33.6505 51.796C33.2585 52.004 32.8065 52.108 32.2945 52.108C31.7185 52.108 31.1905 51.964 30.7105 51.676C30.2385 51.38 29.8625 50.972 29.5825 50.452C29.3105 49.924 29.1745 49.328 29.1745 48.664ZM34.5865 48.688C34.5865 48.232 34.4905 47.836 34.2985 47.5C34.1145 47.164 33.8705 46.908 33.5665 46.732C33.2625 46.556 32.9345 46.468 32.5825 46.468C32.2305 46.468 31.9025 46.556 31.5985 46.732C31.2945 46.9 31.0465 47.152 30.8545 47.488C30.6705 47.816 30.5785 48.208 30.5785 48.664C30.5785 49.12 30.6705 49.52 30.8545 49.864C31.0465 50.208 31.2945 50.472 31.5985 50.656C31.9105 50.832 32.2385 50.92 32.5825 50.92C32.9345 50.92 33.2625 50.832 33.5665 50.656C33.8705 50.48 34.1145 50.224 34.2985 49.888C34.4905 49.544 34.5865 49.144 34.5865 48.688ZM43.8233 48.532C43.8233 48.78 43.8073 49.004 43.7753 49.204H38.7233C38.7633 49.732 38.9593 50.156 39.3113 50.476C39.6633 50.796 40.0953 50.956 40.6073 50.956C41.3433 50.956 41.8633 50.648 42.1673 50.032H43.6433C43.4433 50.64 43.0793 51.14 42.5513 51.532C42.0313 51.916 41.3833 52.108 40.6073 52.108C39.9753 52.108 39.4073 51.968 38.9033 51.688C38.4073 51.4 38.0153 51 37.7273 50.488C37.4473 49.968 37.3073 49.368 37.3073 48.688C37.3073 48.008 37.4433 47.412 37.7153 46.9C37.9953 46.38 38.3833 45.98 38.8793 45.7C39.3833 45.42 39.9593 45.28 40.6073 45.28C41.2313 45.28 41.7873 45.416 42.2753 45.688C42.7633 45.96 43.1433 46.344 43.4153 46.84C43.6873 47.328 43.8233 47.892 43.8233 48.532ZM42.3953 48.1C42.3873 47.596 42.2073 47.192 41.8553 46.888C41.5033 46.584 41.0673 46.432 40.5473 46.432C40.0753 46.432 39.6713 46.584 39.3353 46.888C38.9993 47.184 38.7993 47.588 38.7353 48.1H42.3953ZM46.5375 46.348C46.7375 46.012 47.0015 45.752 47.3295 45.568C47.6655 45.376 48.0615 45.28 48.5175 45.28V46.696H48.1695C47.6335 46.696 47.2255 46.832 46.9455 47.104C46.6735 47.376 46.5375 47.848 46.5375 48.52V52H45.1695V45.388H46.5375V46.348ZM52.175 52.108C51.655 52.108 51.187 52.016 50.771 51.832C50.363 51.64 50.039 51.384 49.799 51.064C49.559 50.736 49.431 50.372 49.415 49.972H50.831C50.855 50.252 50.987 50.488 51.227 50.68C51.475 50.864 51.783 50.956 52.151 50.956C52.535 50.956 52.831 50.884 53.039 50.74C53.255 50.588 53.363 50.396 53.363 50.164C53.363 49.916 53.243 49.732 53.003 49.612C52.771 49.492 52.399 49.36 51.887 49.216C51.391 49.08 50.987 48.948 50.675 48.82C50.363 48.692 50.091 48.496 49.859 48.232C49.635 47.968 49.523 47.62 49.523 47.188C49.523 46.836 49.627 46.516 49.835 46.228C50.043 45.932 50.339 45.7 50.723 45.532C51.115 45.364 51.563 45.28 52.067 45.28C52.819 45.28 53.423 45.472 53.879 45.856C54.343 46.232 54.591 46.748 54.623 47.404H53.255C53.231 47.108 53.111 46.872 52.895 46.696C52.679 46.52 52.387 46.432 52.019 46.432C51.659 46.432 51.383 46.5 51.191 46.636C50.999 46.772 50.903 46.952 50.903 47.176C50.903 47.352 50.967 47.5 51.095 47.62C51.223 47.74 51.379 47.836 51.563 47.908C51.747 47.972 52.019 48.056 52.379 48.16C52.859 48.288 53.251 48.42 53.555 48.556C53.867 48.684 54.135 48.876 54.359 49.132C54.583 49.388 54.699 49.728 54.707 50.152C54.707 50.528 54.603 50.864 54.395 51.16C54.187 51.456 53.891 51.688 53.507 51.856C53.131 52.024 52.687 52.108 52.175 52.108Z" fill="#757575"/>
<defs>
<clipPath id="clip0_304_4308">
<rect width="24" height="24" fill="white" transform="translate(23 11)"/>
</clipPath>
</defs>
</svg>
