<svg width="24" height="24" viewBox="0 0 24 24" fill="none" xmlns="http://www.w3.org/2000/svg">
<g clip-path="url(#clip0_209_3519)">
<path d="M6.5625 5.75C6.80412 5.75 7 5.94588 7 6.1875C7 6.42912 6.80412 6.625 6.5625 6.625C6.32088 6.625 6.125 6.42912 6.125 6.1875C6.125 5.94588 6.32088 5.75 6.5625 5.75Z" fill="#7A7F94" stroke="#757575"/>
<path d="M6.5625 9.5C6.80412 9.5 7 9.69588 7 9.9375C7 10.1791 6.80412 10.375 6.5625 10.375C6.32088 10.375 6.125 10.1791 6.125 9.9375C6.125 9.69588 6.32088 9.5 6.5625 9.5Z" fill="#7A7F94" stroke="#757575"/>
<path d="M6.5625 14.625C7.08027 14.625 7.5 14.2053 7.5 13.6875C7.5 13.1697 7.08027 12.75 6.5625 12.75C6.04473 12.75 5.625 13.1697 5.625 13.6875C5.625 14.2053 6.04473 14.625 6.5625 14.625Z" fill="#7A7F94"/>
<path d="M13.6875 7.125H10.3125C9.79472 7.125 9.375 6.70528 9.375 6.1875C9.375 5.66972 9.79472 5.25 10.3125 5.25H13.6875C14.2053 5.25 14.625 5.66972 14.625 6.1875C14.625 6.70528 14.2053 7.125 13.6875 7.125Z" fill="#7A7F94"/>
<path d="M11.8125 10.875H10.3125C9.79472 10.875 9.375 10.4553 9.375 9.9375C9.375 9.41972 9.79472 9 10.3125 9H11.8125C12.3303 9 12.75 9.41972 12.75 9.9375C12.75 10.4553 12.3303 10.875 11.8125 10.875Z" fill="#7A7F94"/>
<path d="M11.8125 14.625H10.3125C9.79472 14.625 9.375 14.2053 9.375 13.6875C9.375 13.1697 9.79472 12.75 10.3125 12.75H11.8125C12.3303 12.75 12.75 13.1697 12.75 13.6875C12.75 14.2053 12.3303 14.625 11.8125 14.625Z" fill="#7A7F94"/>
<path d="M17.4375 18.375C16.9197 18.375 16.5 18.7947 16.5 19.3125V21.1875C16.5 21.7044 16.0794 22.125 15.5625 22.125C15.0456 22.125 14.625 21.7044 14.625 21.1875C14.625 19.6367 13.3633 18.375 11.8125 18.375H3.75V3.75C3.75 2.71613 4.59113 1.875 5.625 1.875H14.625C15.6589 1.875 16.5 2.71613 16.5 3.75V4.3125C16.5 4.83028 16.9197 5.25 17.4375 5.25C17.9553 5.25 18.375 4.83028 18.375 4.3125V3.75C18.375 1.68225 16.6927 0 14.625 0H5.625C3.55725 0 1.875 1.68225 1.875 3.75V18.375H0.9375C0.419719 18.375 0 18.7947 0 19.3125V21.1875C0 22.7383 1.26169 24 2.8125 24H15.5625C17.1133 24 18.375 22.7383 18.375 21.1875V19.3125C18.375 18.7947 17.9553 18.375 17.4375 18.375ZM2.8125 22.125C2.29556 22.125 1.875 21.7044 1.875 21.1875V20.25H11.8125C12.3294 20.25 12.75 20.6706 12.75 21.1875C12.75 21.516 12.8066 21.8317 12.9106 22.125H2.8125Z" fill="#7A7F94"/>
<path d="M21.1875 7.125H17.4375C15.8867 7.125 14.625 8.38669 14.625 9.9375V13.6875C14.625 15.2383 15.8867 16.5 17.4375 16.5H21.1875C22.7383 16.5 24 15.2383 24 13.6875V9.9375C24 8.38669 22.7383 7.125 21.1875 7.125ZM22.125 13.6875C22.125 14.2044 21.7044 14.625 21.1875 14.625H17.4375C16.9206 14.625 16.5 14.2044 16.5 13.6875V9.9375C16.5 9.42056 16.9206 9 17.4375 9H18.375V9.9375C18.375 10.4553 18.7947 10.875 19.3125 10.875C19.8303 10.875 20.25 10.4553 20.25 9.9375V9H21.1875C21.7044 9 22.125 9.42056 22.125 9.9375V13.6875Z" fill="#7A7F94"/>
</g>
<defs>
<clipPath id="clip0_209_3519">
<rect width="24" height="24" fill="white"/>
</clipPath>
</defs>
</svg>
