<svg width="70" height="68" viewBox="0 0 70 68" fill="none" xmlns="http://www.w3.org/2000/svg">
<g clip-path="url(#clip0_304_4328)">
<path d="M34.999 15.7734C37.3707 15.7734 39.2871 17.752 39.2871 20.1846C39.2869 22.6169 37.3706 24.5947 34.999 24.5947C32.6275 24.5946 30.7112 22.6168 30.7109 20.1846C30.7109 17.7521 32.6274 15.7735 34.999 15.7734ZM34.999 17.7373C33.7319 17.7374 32.6748 18.8175 32.6748 20.1846C32.675 21.5515 33.732 22.6308 34.999 22.6309C36.2661 22.6309 37.323 21.5515 37.3232 20.1846C37.3232 18.8174 36.2663 17.7373 34.999 17.7373Z" fill="#7A7F94" stroke="#7A7F94" stroke-width="0.25"/>
<path d="M35 10.875C41.6965 10.875 47.125 16.3035 47.125 23C47.125 27.5113 44.6606 31.446 41.0059 33.5342C39.2961 34.5188 37.3195 35.0945 35.2109 35.124H35.21L35.001 35.125H35C28.3035 35.125 22.875 29.6965 22.875 23C22.875 16.3035 28.3035 10.875 35 10.875ZM33.8789 27.5332C31.7399 27.5332 29.8389 28.8881 29.1387 30.9014L29.0547 31.1748C30.7219 32.4163 32.7631 33.13 34.9004 33.1592H35.168C36.9543 33.1302 38.6279 32.6397 40.0762 31.8027L40.9434 31.2285L40.8672 30.9941C40.2031 28.9593 38.3228 27.5735 36.1895 27.5342V27.5332H33.8789ZM35 12.8389C29.3884 12.8389 24.8389 17.3884 24.8389 23C24.8389 25.619 25.8316 28.0049 27.459 29.8066C28.5485 27.2547 31.0649 25.5693 33.8789 25.5693H36.0967C38.9173 25.5694 41.438 27.2632 42.5234 29.8252C44.161 28.0213 45.1611 25.6282 45.1611 23C45.1611 17.3884 40.6116 12.8389 35 12.8389Z" fill="#7A7F94" stroke="#7A7F94" stroke-width="0.25"/>
</g>
<path d="M23.1754 46.144C23.1754 46.568 23.0754 46.968 22.8754 47.344C22.6754 47.72 22.3554 48.028 21.9154 48.268C21.4754 48.5 20.9114 48.616 20.2234 48.616H18.7114V52H17.3434V43.66H20.2234C20.8634 43.66 21.4034 43.772 21.8434 43.996C22.2914 44.212 22.6234 44.508 22.8394 44.884C23.0634 45.26 23.1754 45.68 23.1754 46.144ZM20.2234 47.5C20.7434 47.5 21.1314 47.384 21.3874 47.152C21.6434 46.912 21.7714 46.576 21.7714 46.144C21.7714 45.232 21.2554 44.776 20.2234 44.776H18.7114V47.5H20.2234ZM25.8481 46.348C26.0481 46.012 26.3121 45.752 26.6401 45.568C26.9761 45.376 27.3721 45.28 27.8281 45.28V46.696H27.4801C26.9441 46.696 26.5361 46.832 26.2561 47.104C25.9841 47.376 25.8481 47.848 25.8481 48.52V52H24.4801V45.388H25.8481V46.348ZM31.9535 52.108C31.3295 52.108 30.7655 51.968 30.2615 51.688C29.7575 51.4 29.3615 51 29.0735 50.488C28.7855 49.968 28.6415 49.368 28.6415 48.688C28.6415 48.016 28.7895 47.42 29.0855 46.9C29.3815 46.38 29.7855 45.98 30.2975 45.7C30.8095 45.42 31.3815 45.28 32.0135 45.28C32.6455 45.28 33.2175 45.42 33.7295 45.7C34.2415 45.98 34.6455 46.38 34.9415 46.9C35.2375 47.42 35.3855 48.016 35.3855 48.688C35.3855 49.36 35.2335 49.956 34.9295 50.476C34.6255 50.996 34.2095 51.4 33.6815 51.688C33.1615 51.968 32.5855 52.108 31.9535 52.108ZM31.9535 50.92C32.3055 50.92 32.6335 50.836 32.9375 50.668C33.2495 50.5 33.5015 50.248 33.6935 49.912C33.8855 49.576 33.9815 49.168 33.9815 48.688C33.9815 48.208 33.8895 47.804 33.7055 47.476C33.5215 47.14 33.2775 46.888 32.9735 46.72C32.6695 46.552 32.3415 46.468 31.9895 46.468C31.6375 46.468 31.3095 46.552 31.0055 46.72C30.7095 46.888 30.4735 47.14 30.2975 47.476C30.1215 47.804 30.0335 48.208 30.0335 48.688C30.0335 49.4 30.2135 49.952 30.5735 50.344C30.9415 50.728 31.4015 50.92 31.9535 50.92ZM39.5099 46.504H38.2859V52H36.9059V46.504H36.1259V45.388H36.9059V44.92C36.9059 44.16 37.1059 43.608 37.5059 43.264C37.9139 42.912 38.5499 42.736 39.4139 42.736V43.876C38.9979 43.876 38.7059 43.956 38.5379 44.116C38.3699 44.268 38.2859 44.536 38.2859 44.92V45.388H39.5099V46.504ZM41.4183 44.512C41.1703 44.512 40.9623 44.428 40.7943 44.26C40.6263 44.092 40.5423 43.884 40.5423 43.636C40.5423 43.388 40.6263 43.18 40.7943 43.012C40.9623 42.844 41.1703 42.76 41.4183 42.76C41.6583 42.76 41.8623 42.844 42.0303 43.012C42.1983 43.18 42.2823 43.388 42.2823 43.636C42.2823 43.884 42.1983 44.092 42.0303 44.26C41.8623 44.428 41.6583 44.512 41.4183 44.512ZM42.0903 45.388V52H40.7223V45.388H42.0903ZM45.2543 43.12V52H43.8863V43.12H45.2543ZM53.1104 48.532C53.1104 48.78 53.0944 49.004 53.0624 49.204H48.0104C48.0504 49.732 48.2464 50.156 48.5984 50.476C48.9504 50.796 49.3824 50.956 49.8944 50.956C50.6304 50.956 51.1504 50.648 51.4544 50.032H52.9304C52.7304 50.64 52.3664 51.14 51.8384 51.532C51.3184 51.916 50.6704 52.108 49.8944 52.108C49.2624 52.108 48.6944 51.968 48.1904 51.688C47.6944 51.4 47.3024 51 47.0144 50.488C46.7344 49.968 46.5944 49.368 46.5944 48.688C46.5944 48.008 46.7304 47.412 47.0024 46.9C47.2824 46.38 47.6704 45.98 48.1664 45.7C48.6704 45.42 49.2464 45.28 49.8944 45.28C50.5184 45.28 51.0744 45.416 51.5624 45.688C52.0504 45.96 52.4304 46.344 52.7024 46.84C52.9744 47.328 53.1104 47.892 53.1104 48.532ZM51.6824 48.1C51.6744 47.596 51.4944 47.192 51.1424 46.888C50.7904 46.584 50.3544 46.432 49.8344 46.432C49.3624 46.432 48.9584 46.584 48.6224 46.888C48.2864 47.184 48.0864 47.588 48.0224 48.1H51.6824Z" fill="#757575"/>
<defs>
<clipPath id="clip0_304_4328">
<rect width="24" height="24" fill="white" transform="translate(23 11)"/>
</clipPath>
</defs>
</svg>
