<svg width="24" height="24" viewBox="0 0 24 24" fill="none" xmlns="http://www.w3.org/2000/svg">
<g clip-path="url(#clip0_209_3539)">
<path d="M11.999 4.77344C14.3707 4.77344 16.2871 6.75202 16.2871 9.18457C16.2869 11.6169 14.3706 13.5947 11.999 13.5947C9.62752 13.5946 7.71116 11.6168 7.71094 9.18457C7.71094 6.75212 9.62739 4.77353 11.999 4.77344ZM11.999 6.7373C10.7319 6.7374 9.6748 7.81748 9.6748 9.18457C9.67502 10.5515 10.732 11.6308 11.999 11.6309C13.2661 11.6309 14.323 10.5515 14.3232 9.18457C14.3232 7.81741 13.2663 6.7373 11.999 6.7373Z" fill="#7A7F94" stroke="#7A7F94" stroke-width="0.25"/>
<path d="M12 -0.125C18.6965 -0.125 24.125 5.30353 24.125 12C24.125 16.5113 21.6606 20.446 18.0059 22.5342C16.2961 23.5188 14.3195 24.0945 12.2109 24.124H12.21L12.001 24.125H12C5.30351 24.125 -0.125 18.6965 -0.125 12C-0.125 5.30353 5.30353 -0.125 12 -0.125ZM10.8789 16.5332C8.73992 16.5332 6.83889 17.8881 6.13867 19.9014L6.05469 20.1748C7.72191 21.4163 9.76313 22.13 11.9004 22.1592H12.168C13.9543 22.1302 15.6279 21.6397 17.0762 20.8027L17.9434 20.2285L17.8672 19.9941C17.2031 17.9593 15.3228 16.5735 13.1895 16.5342V16.5332H10.8789ZM12 1.83887C6.38839 1.83887 1.83887 6.38839 1.83887 12C1.83887 14.619 2.83162 17.0049 4.45898 18.8066C5.5485 16.2547 8.06488 14.5693 10.8789 14.5693H13.0967C15.9173 14.5694 18.438 16.2632 19.5234 18.8252C21.161 17.0213 22.1611 14.6282 22.1611 12C22.1611 6.38839 17.6116 1.83887 12 1.83887Z" fill="#7A7F94" stroke="#7A7F94" stroke-width="0.25"/>
</g>
<defs>
<clipPath id="clip0_209_3539">
<rect width="24" height="24" fill="white"/>
</clipPath>
</defs>
</svg>
