<svg width="24" height="24" viewBox="0 0 24 24" fill="none" xmlns="http://www.w3.org/2000/svg">
<mask id="path-1-inside-1_209_3502" fill="white">
<path fill-rule="evenodd" clip-rule="evenodd" d="M22 21.25H2C1.586 21.25 1.25 21.586 1.25 22C1.25 22.414 1.586 22.75 2 22.75H22C22.414 22.75 22.75 22.414 22.75 22C22.75 21.586 22.414 21.25 22 21.25Z"/>
</mask>
<path fill-rule="evenodd" clip-rule="evenodd" d="M22 21.25H2C1.586 21.25 1.25 21.586 1.25 22C1.25 22.414 1.586 22.75 2 22.75H22C22.414 22.75 22.75 22.414 22.75 22C22.75 21.586 22.414 21.25 22 21.25Z" fill="#7A7F94"/>
<path d="M22 21.25V-0.083334H2V21.25V42.5833H22V21.25ZM2 21.25V-0.083334C-10.1961 -0.083334 -20.0833 9.80392 -20.0833 22H1.25H22.5833C22.5833 33.3681 13.3681 42.5833 2 42.5833V21.25ZM1.25 22H-20.0833C-20.0833 34.1961 -10.1961 44.0833 2 44.0833V22.75V1.41667C13.3681 1.41667 22.5833 10.6319 22.5833 22H1.25ZM2 22.75V44.0833H22V22.75V1.41667H2V22.75ZM22 22.75V44.0833C34.1961 44.0833 44.0833 34.1961 44.0833 22H22.75H1.41667C1.41667 10.6319 10.6319 1.41667 22 1.41667V22.75ZM22.75 22H44.0833C44.0833 9.80392 34.1961 -0.083334 22 -0.083334V21.25V42.5833C10.6319 42.5833 1.41667 33.3681 1.41667 22H22.75Z" fill="#757575" mask="url(#path-1-inside-1_209_3502)"/>
<mask id="path-3-inside-2_209_3502" fill="white">
<path fill-rule="evenodd" clip-rule="evenodd" d="M4 9.25C3.586 9.25 3.25 9.586 3.25 10V22C3.25 22.414 3.586 22.75 4 22.75H20C20.414 22.75 20.75 22.414 20.75 22V10C20.75 9.586 20.414 9.25 20 9.25H4ZM4.75 10.75H19.25V21.25H4.75V10.75Z"/>
</mask>
<path fill-rule="evenodd" clip-rule="evenodd" d="M4 9.25C3.586 9.25 3.25 9.586 3.25 10V22C3.25 22.414 3.586 22.75 4 22.75H20C20.414 22.75 20.75 22.414 20.75 22V10C20.75 9.586 20.414 9.25 20 9.25H4ZM4.75 10.75H19.25V21.25H4.75V10.75Z" fill="#7A7F94"/>
<path d="M4.75 10.75V-10.5833H-16.5833V10.75H4.75ZM19.25 10.75H40.5833V-10.5833H19.25V10.75ZM19.25 21.25V42.5833H40.5833V21.25H19.25ZM4.75 21.25H-16.5833V42.5833H4.75V21.25ZM4 9.25V-12.0833C-8.19607 -12.0833 -18.0833 -2.19608 -18.0833 10H3.25H24.5833C24.5833 21.3681 15.3681 30.5833 4 30.5833V9.25ZM3.25 10H-18.0833V22H3.25H24.5833V10H3.25ZM3.25 22H-18.0833C-18.0833 34.1961 -8.19607 44.0833 4 44.0833V22.75V1.41667C15.3681 1.41667 24.5833 10.6319 24.5833 22H3.25ZM4 22.75V44.0833H20V22.75V1.41667H4V22.75ZM20 22.75V44.0833C32.1961 44.0833 42.0833 34.1961 42.0833 22H20.75H-0.583332C-0.583332 10.6319 8.63193 1.41667 20 1.41667V22.75ZM20.75 22H42.0833V10H20.75H-0.583332V22H20.75ZM20.75 10H42.0833C42.0833 -2.19608 32.1961 -12.0833 20 -12.0833V9.25V30.5833C8.63193 30.5833 -0.583332 21.3681 -0.583332 10H20.75ZM20 9.25V-12.0833H4V9.25V30.5833H20V9.25ZM4.75 10.75V32.0833H19.25V10.75V-10.5833H4.75V10.75ZM19.25 10.75H-2.08333V21.25H19.25H40.5833V10.75H19.25ZM19.25 21.25V-0.083334H4.75V21.25V42.5833H19.25V21.25ZM4.75 21.25H26.0833V10.75H4.75H-16.5833V21.25H4.75Z" fill="#757575" mask="url(#path-3-inside-2_209_3502)"/>
<path fill-rule="evenodd" clip-rule="evenodd" d="M5 5.25H4C3.586 5.25 3.25 5.586 3.25 6V10C3.25 10.414 3.586 10.75 4 10.75H20C20.414 10.75 20.75 10.414 20.75 10V6C20.75 5.586 20.414 5.25 20 5.25H19C18.586 5.25 18.25 5.586 18.25 6C18.25 6.414 18.586 6.75 19 6.75H19.25V9.25H4.75V6.75H5C5.414 6.75 5.75 6.414 5.75 6C5.75 5.586 5.414 5.25 5 5.25Z" fill="#7A7F94"/>
<path fill-rule="evenodd" clip-rule="evenodd" d="M12.75 14C12.75 13.586 12.414 13.25 12 13.25H6.5C6.086 13.25 5.75 13.586 5.75 14V22C5.75 22.414 6.086 22.75 6.5 22.75H12C12.414 22.75 12.75 22.414 12.75 22V14ZM11.25 14.75V21.25H7.25V14.75H11.25Z" fill="#7A7F94"/>
<path fill-rule="evenodd" clip-rule="evenodd" d="M18.25 14C18.25 13.586 17.914 13.25 17.5 13.25H14.5C14.086 13.25 13.75 13.586 13.75 14V17C13.75 17.414 14.086 17.75 14.5 17.75H17.5C17.914 17.75 18.25 17.414 18.25 17V14ZM16.75 14.75V16.25H15.25V14.75H16.75Z" fill="#7A7F94"/>
<path fill-rule="evenodd" clip-rule="evenodd" d="M3 10.75H21C21.414 10.75 21.75 10.414 21.75 10C21.75 9.586 21.414 9.25 21 9.25H3C2.586 9.25 2.25 9.586 2.25 10C2.25 10.414 2.586 10.75 3 10.75Z" fill="#7A7F94"/>
<path fill-rule="evenodd" clip-rule="evenodd" d="M15 1.25C14.348 1.25 13.719 1.609 13.23 2.23C12.639 2.981 12.25 4.121 12.25 5.143C12.25 6.661 13.482 7.893 15 7.893C16.518 7.893 17.75 6.661 17.75 5.143C17.75 4.121 17.361 2.981 16.77 2.23C16.281 1.609 15.652 1.25 15 1.25ZM15 2.75C15.232 2.75 15.418 2.938 15.592 3.158C15.994 3.669 16.25 4.448 16.25 5.143C16.25 5.833 15.69 6.393 15 6.393C14.31 6.393 13.75 5.833 13.75 5.143C13.75 4.448 14.006 3.669 14.408 3.158C14.582 2.938 14.768 2.75 15 2.75Z" fill="#7A7F94"/>
<path fill-rule="evenodd" clip-rule="evenodd" d="M15.75 9.99958V7.14258C15.75 6.72858 15.414 6.39258 15 6.39258C14.586 6.39258 14.25 6.72858 14.25 7.14258V9.99958C14.25 10.4136 14.586 10.7496 15 10.7496C15.414 10.7496 15.75 10.4136 15.75 9.99958Z" fill="#7A7F94"/>
<path fill-rule="evenodd" clip-rule="evenodd" d="M9.75 9.99958V6.64258C9.75 6.22858 9.414 5.89258 9 5.89258C8.586 5.89258 8.25 6.22858 8.25 6.64258V9.99958C8.25 10.4136 8.586 10.7496 9 10.7496C9.414 10.7496 9.75 10.4136 9.75 9.99958Z" fill="#7A7F94"/>
<path fill-rule="evenodd" clip-rule="evenodd" d="M6.25 2V4.528C6.25 4.955 6.349 5.376 6.54 5.758L6.803 6.283C7.099 6.875 7.705 7.25 8.368 7.25H9.632C10.295 7.25 10.901 6.875 11.197 6.283L11.46 5.758C11.651 5.376 11.75 4.955 11.75 4.528C11.75 3.683 11.75 2 11.75 2C11.75 1.586 11.414 1.25 11 1.25C10.586 1.25 10.25 1.586 10.25 2V4.528C10.25 4.722 10.205 4.913 10.118 5.087L9.856 5.612C9.813 5.697 9.727 5.75 9.632 5.75H8.368C8.273 5.75 8.187 5.697 8.144 5.612L7.882 5.087C7.795 4.913 7.75 4.722 7.75 4.528V2C7.75 1.586 7.414 1.25 7 1.25C6.586 1.25 6.25 1.586 6.25 2Z" fill="#7A7F94"/>
<path fill-rule="evenodd" clip-rule="evenodd" d="M8.25 2V4.25C8.25 4.664 8.586 5 9 5C9.414 5 9.75 4.664 9.75 4.25V2C9.75 1.586 9.414 1.25 9 1.25C8.586 1.25 8.25 1.586 8.25 2Z" fill="#7A7F94"/>
</svg>
