<svg width="70" height="68" viewBox="0 0 70 68" fill="none" xmlns="http://www.w3.org/2000/svg">
<mask id="path-1-inside-1_304_4291" fill="white">
<path fill-rule="evenodd" clip-rule="evenodd" d="M45 32.25H25C24.586 32.25 24.25 32.586 24.25 33C24.25 33.414 24.586 33.75 25 33.75H45C45.414 33.75 45.75 33.414 45.75 33C45.75 32.586 45.414 32.25 45 32.25Z"/>
</mask>
<path fill-rule="evenodd" clip-rule="evenodd" d="M45 32.25H25C24.586 32.25 24.25 32.586 24.25 33C24.25 33.414 24.586 33.75 25 33.75H45C45.414 33.75 45.75 33.414 45.75 33C45.75 32.586 45.414 32.25 45 32.25Z" fill="#7A7F94"/>
<path d="M45 32.25V10.9167H25V32.25V53.5833H45V32.25ZM25 32.25V10.9167C12.8039 10.9167 2.91667 20.8039 2.91667 33H24.25H45.5833C45.5833 44.3681 36.3681 53.5833 25 53.5833V32.25ZM24.25 33H2.91667C2.91667 45.1961 12.8039 55.0833 25 55.0833V33.75V12.4167C36.3681 12.4167 45.5833 21.6319 45.5833 33H24.25ZM25 33.75V55.0833H45V33.75V12.4167H25V33.75ZM45 33.75V55.0833C57.1961 55.0833 67.0833 45.1961 67.0833 33H45.75H24.4167C24.4167 21.6319 33.6319 12.4167 45 12.4167V33.75ZM45.75 33H67.0833C67.0833 20.8039 57.1961 10.9167 45 10.9167V32.25V53.5833C33.6319 53.5833 24.4167 44.3681 24.4167 33H45.75Z" fill="#757575" mask="url(#path-1-inside-1_304_4291)"/>
<mask id="path-3-inside-2_304_4291" fill="white">
<path fill-rule="evenodd" clip-rule="evenodd" d="M27 20.25C26.586 20.25 26.25 20.586 26.25 21V33C26.25 33.414 26.586 33.75 27 33.75H43C43.414 33.75 43.75 33.414 43.75 33V21C43.75 20.586 43.414 20.25 43 20.25H27ZM27.75 21.75H42.25V32.25H27.75V21.75Z"/>
</mask>
<path fill-rule="evenodd" clip-rule="evenodd" d="M27 20.25C26.586 20.25 26.25 20.586 26.25 21V33C26.25 33.414 26.586 33.75 27 33.75H43C43.414 33.75 43.75 33.414 43.75 33V21C43.75 20.586 43.414 20.25 43 20.25H27ZM27.75 21.75H42.25V32.25H27.75V21.75Z" fill="#7A7F94"/>
<path d="M27.75 21.75V0.416666H6.41667V21.75H27.75ZM42.25 21.75H63.5833V0.416666H42.25V21.75ZM42.25 32.25V53.5833H63.5833V32.25H42.25ZM27.75 32.25H6.41667V53.5833H27.75V32.25ZM27 20.25V-1.08333C14.8039 -1.08333 4.91667 8.80392 4.91667 21H26.25H47.5833C47.5833 32.3681 38.3681 41.5833 27 41.5833V20.25ZM26.25 21H4.91667V33H26.25H47.5833V21H26.25ZM26.25 33H4.91667C4.91667 45.1961 14.8039 55.0833 27 55.0833V33.75V12.4167C38.3681 12.4167 47.5833 21.6319 47.5833 33H26.25ZM27 33.75V55.0833H43V33.75V12.4167H27V33.75ZM43 33.75V55.0833C55.1961 55.0833 65.0833 45.1961 65.0833 33H43.75H22.4167C22.4167 21.6319 31.6319 12.4167 43 12.4167V33.75ZM43.75 33H65.0833V21H43.75H22.4167V33H43.75ZM43.75 21H65.0833C65.0833 8.80392 55.1961 -1.08333 43 -1.08333V20.25V41.5833C31.6319 41.5833 22.4167 32.3681 22.4167 21H43.75ZM43 20.25V-1.08333H27V20.25V41.5833H43V20.25ZM27.75 21.75V43.0833H42.25V21.75V0.416666H27.75V21.75ZM42.25 21.75H20.9167V32.25H42.25H63.5833V21.75H42.25ZM42.25 32.25V10.9167H27.75V32.25V53.5833H42.25V32.25ZM27.75 32.25H49.0833V21.75H27.75H6.41667V32.25H27.75Z" fill="#757575" mask="url(#path-3-inside-2_304_4291)"/>
<path fill-rule="evenodd" clip-rule="evenodd" d="M28 16.25H27C26.586 16.25 26.25 16.586 26.25 17V21C26.25 21.414 26.586 21.75 27 21.75H43C43.414 21.75 43.75 21.414 43.75 21V17C43.75 16.586 43.414 16.25 43 16.25H42C41.586 16.25 41.25 16.586 41.25 17C41.25 17.414 41.586 17.75 42 17.75H42.25V20.25H27.75V17.75H28C28.414 17.75 28.75 17.414 28.75 17C28.75 16.586 28.414 16.25 28 16.25Z" fill="#7A7F94"/>
<path fill-rule="evenodd" clip-rule="evenodd" d="M35.75 25C35.75 24.586 35.414 24.25 35 24.25H29.5C29.086 24.25 28.75 24.586 28.75 25V33C28.75 33.414 29.086 33.75 29.5 33.75H35C35.414 33.75 35.75 33.414 35.75 33V25ZM34.25 25.75V32.25H30.25V25.75H34.25Z" fill="#7A7F94"/>
<path fill-rule="evenodd" clip-rule="evenodd" d="M41.25 25C41.25 24.586 40.914 24.25 40.5 24.25H37.5C37.086 24.25 36.75 24.586 36.75 25V28C36.75 28.414 37.086 28.75 37.5 28.75H40.5C40.914 28.75 41.25 28.414 41.25 28V25ZM39.75 25.75V27.25H38.25V25.75H39.75Z" fill="#7A7F94"/>
<path fill-rule="evenodd" clip-rule="evenodd" d="M26 21.75H44C44.414 21.75 44.75 21.414 44.75 21C44.75 20.586 44.414 20.25 44 20.25H26C25.586 20.25 25.25 20.586 25.25 21C25.25 21.414 25.586 21.75 26 21.75Z" fill="#7A7F94"/>
<path fill-rule="evenodd" clip-rule="evenodd" d="M38 12.25C37.348 12.25 36.719 12.609 36.23 13.23C35.639 13.981 35.25 15.121 35.25 16.143C35.25 17.661 36.482 18.893 38 18.893C39.518 18.893 40.75 17.661 40.75 16.143C40.75 15.121 40.361 13.981 39.77 13.23C39.281 12.609 38.652 12.25 38 12.25ZM38 13.75C38.232 13.75 38.418 13.938 38.592 14.158C38.994 14.669 39.25 15.448 39.25 16.143C39.25 16.833 38.69 17.393 38 17.393C37.31 17.393 36.75 16.833 36.75 16.143C36.75 15.448 37.006 14.669 37.408 14.158C37.582 13.938 37.768 13.75 38 13.75Z" fill="#7A7F94"/>
<path fill-rule="evenodd" clip-rule="evenodd" d="M38.75 20.9996V18.1426C38.75 17.7286 38.414 17.3926 38 17.3926C37.586 17.3926 37.25 17.7286 37.25 18.1426V20.9996C37.25 21.4136 37.586 21.7496 38 21.7496C38.414 21.7496 38.75 21.4136 38.75 20.9996Z" fill="#7A7F94"/>
<path fill-rule="evenodd" clip-rule="evenodd" d="M32.75 20.9996V17.6426C32.75 17.2286 32.414 16.8926 32 16.8926C31.586 16.8926 31.25 17.2286 31.25 17.6426V20.9996C31.25 21.4136 31.586 21.7496 32 21.7496C32.414 21.7496 32.75 21.4136 32.75 20.9996Z" fill="#7A7F94"/>
<path fill-rule="evenodd" clip-rule="evenodd" d="M29.25 13V15.528C29.25 15.955 29.349 16.376 29.54 16.758L29.803 17.283C30.099 17.875 30.705 18.25 31.368 18.25H32.632C33.295 18.25 33.901 17.875 34.197 17.283L34.46 16.758C34.651 16.376 34.75 15.955 34.75 15.528C34.75 14.683 34.75 13 34.75 13C34.75 12.586 34.414 12.25 34 12.25C33.586 12.25 33.25 12.586 33.25 13V15.528C33.25 15.722 33.205 15.913 33.118 16.087L32.856 16.612C32.813 16.697 32.727 16.75 32.632 16.75H31.368C31.273 16.75 31.187 16.697 31.144 16.612L30.882 16.087C30.795 15.913 30.75 15.722 30.75 15.528V13C30.75 12.586 30.414 12.25 30 12.25C29.586 12.25 29.25 12.586 29.25 13Z" fill="#7A7F94"/>
<path fill-rule="evenodd" clip-rule="evenodd" d="M31.25 13V15.25C31.25 15.664 31.586 16 32 16C32.414 16 32.75 15.664 32.75 15.25V13C32.75 12.586 32.414 12.25 32 12.25C31.586 12.25 31.25 12.586 31.25 13Z" fill="#7A7F94"/>
<path d="M21.1715 52L19.2515 48.664H18.2075V52H16.8395V43.66H19.7195C20.3595 43.66 20.8995 43.772 21.3395 43.996C21.7875 44.22 22.1195 44.52 22.3355 44.896C22.5595 45.272 22.6715 45.692 22.6715 46.156C22.6715 46.7 22.5115 47.196 22.1915 47.644C21.8795 48.084 21.3955 48.384 20.7395 48.544L22.8035 52H21.1715ZM18.2075 47.572H19.7195C20.2315 47.572 20.6155 47.444 20.8715 47.188C21.1355 46.932 21.2675 46.588 21.2675 46.156C21.2675 45.724 21.1395 45.388 20.8835 45.148C20.6275 44.9 20.2395 44.776 19.7195 44.776H18.2075V47.572ZM30.4815 48.532C30.4815 48.78 30.4655 49.004 30.4335 49.204H25.3815C25.4215 49.732 25.6175 50.156 25.9695 50.476C26.3215 50.796 26.7535 50.956 27.2655 50.956C28.0015 50.956 28.5215 50.648 28.8255 50.032H30.3015C30.1015 50.64 29.7375 51.14 29.2095 51.532C28.6895 51.916 28.0415 52.108 27.2655 52.108C26.6335 52.108 26.0655 51.968 25.5615 51.688C25.0655 51.4 24.6735 51 24.3855 50.488C24.1055 49.968 23.9655 49.368 23.9655 48.688C23.9655 48.008 24.1015 47.412 24.3735 46.9C24.6535 46.38 25.0415 45.98 25.5375 45.7C26.0415 45.42 26.6175 45.28 27.2655 45.28C27.8895 45.28 28.4455 45.416 28.9335 45.688C29.4215 45.96 29.8015 46.344 30.0735 46.84C30.3455 47.328 30.4815 47.892 30.4815 48.532ZM29.0535 48.1C29.0455 47.596 28.8655 47.192 28.5135 46.888C28.1615 46.584 27.7255 46.432 27.2055 46.432C26.7335 46.432 26.3295 46.584 25.9935 46.888C25.6575 47.184 25.4575 47.588 25.3935 48.1H29.0535ZM34.2277 52.108C33.7077 52.108 33.2397 52.016 32.8237 51.832C32.4157 51.64 32.0917 51.384 31.8517 51.064C31.6117 50.736 31.4837 50.372 31.4677 49.972H32.8837C32.9077 50.252 33.0397 50.488 33.2797 50.68C33.5277 50.864 33.8357 50.956 34.2037 50.956C34.5877 50.956 34.8837 50.884 35.0917 50.74C35.3077 50.588 35.4157 50.396 35.4157 50.164C35.4157 49.916 35.2957 49.732 35.0557 49.612C34.8237 49.492 34.4517 49.36 33.9397 49.216C33.4437 49.08 33.0397 48.948 32.7277 48.82C32.4157 48.692 32.1437 48.496 31.9117 48.232C31.6877 47.968 31.5757 47.62 31.5757 47.188C31.5757 46.836 31.6797 46.516 31.8877 46.228C32.0957 45.932 32.3917 45.7 32.7757 45.532C33.1677 45.364 33.6157 45.28 34.1197 45.28C34.8717 45.28 35.4757 45.472 35.9317 45.856C36.3957 46.232 36.6437 46.748 36.6757 47.404H35.3077C35.2837 47.108 35.1637 46.872 34.9477 46.696C34.7317 46.52 34.4397 46.432 34.0717 46.432C33.7117 46.432 33.4357 46.5 33.2437 46.636C33.0517 46.772 32.9557 46.952 32.9557 47.176C32.9557 47.352 33.0197 47.5 33.1477 47.62C33.2757 47.74 33.4317 47.836 33.6157 47.908C33.7997 47.972 34.0717 48.056 34.4317 48.16C34.9117 48.288 35.3037 48.42 35.6077 48.556C35.9197 48.684 36.1877 48.876 36.4117 49.132C36.6357 49.388 36.7517 49.728 36.7597 50.152C36.7597 50.528 36.6557 50.864 36.4477 51.16C36.2397 51.456 35.9437 51.688 35.5597 51.856C35.1837 52.024 34.7397 52.108 34.2277 52.108ZM39.8339 46.504V50.164C39.8339 50.412 39.8899 50.592 40.0019 50.704C40.1219 50.808 40.3219 50.86 40.6019 50.86H41.4419V52H40.3619C39.7459 52 39.2739 51.856 38.9459 51.568C38.6179 51.28 38.4539 50.812 38.4539 50.164V46.504H37.6739V45.388H38.4539V43.744H39.8339V45.388H41.4419V46.504H39.8339ZM44.0707 46.348C44.2707 46.012 44.5347 45.752 44.8627 45.568C45.1987 45.376 45.5947 45.28 46.0507 45.28V46.696H45.7027C45.1667 46.696 44.7587 46.832 44.4787 47.104C44.2067 47.376 44.0707 47.848 44.0707 48.52V52H42.7027V45.388H44.0707V46.348ZM50.1762 52.108C49.5522 52.108 48.9882 51.968 48.4842 51.688C47.9802 51.4 47.5842 51 47.2962 50.488C47.0082 49.968 46.8642 49.368 46.8642 48.688C46.8642 48.016 47.0122 47.42 47.3082 46.9C47.6042 46.38 48.0082 45.98 48.5202 45.7C49.0322 45.42 49.6042 45.28 50.2362 45.28C50.8682 45.28 51.4402 45.42 51.9522 45.7C52.4642 45.98 52.8682 46.38 53.1642 46.9C53.4602 47.42 53.6082 48.016 53.6082 48.688C53.6082 49.36 53.4562 49.956 53.1522 50.476C52.8482 50.996 52.4322 51.4 51.9042 51.688C51.3842 51.968 50.8082 52.108 50.1762 52.108ZM50.1762 50.92C50.5282 50.92 50.8562 50.836 51.1602 50.668C51.4722 50.5 51.7242 50.248 51.9162 49.912C52.1082 49.576 52.2042 49.168 52.2042 48.688C52.2042 48.208 52.1122 47.804 51.9282 47.476C51.7442 47.14 51.5002 46.888 51.1962 46.72C50.8922 46.552 50.5642 46.468 50.2122 46.468C49.8602 46.468 49.5322 46.552 49.2282 46.72C48.9322 46.888 48.6962 47.14 48.5202 47.476C48.3442 47.804 48.2562 48.208 48.2562 48.688C48.2562 49.4 48.4362 49.952 48.7962 50.344C49.1642 50.728 49.6242 50.92 50.1762 50.92Z" fill="#757575"/>
</svg>
