<svg width="18" height="18" viewBox="0 0 18 18" fill="none" xmlns="http://www.w3.org/2000/svg">
<path d="M8.22625 0.945073C8.62634 0.45639 9.37366 0.456391 9.77375 0.945073L10.3618 1.66337C10.6338 1.99551 11.0874 2.11705 11.4889 1.96537L12.3574 1.63735C12.9482 1.41419 13.5954 1.78785 13.6976 2.4111L13.8477 3.32721C13.9171 3.75082 14.2492 4.08287 14.6728 4.1523L15.5889 4.30245C16.2122 4.4046 16.5858 5.05179 16.3626 5.64262L16.0346 6.51107C15.8829 6.91264 16.0045 7.36623 16.3366 7.63816L17.0549 8.22625C17.5436 8.62634 17.5436 9.37366 17.0549 9.77375L16.3366 10.3618C16.0045 10.6338 15.8829 11.0874 16.0346 11.4889L16.3626 12.3574C16.5858 12.9482 16.2122 13.5954 15.5889 13.6976L14.6728 13.8477C14.2492 13.9171 13.9171 14.2492 13.8477 14.6728L13.6976 15.5889C13.5954 16.2122 12.9482 16.5858 12.3574 16.3626L11.4889 16.0346C11.0874 15.8829 10.6338 16.0045 10.3618 16.3366L9.77375 17.0549C9.37366 17.5436 8.62634 17.5436 8.22625 17.0549L7.63816 16.3366C7.36623 16.0045 6.91264 15.8829 6.51107 16.0346L5.64262 16.3626C5.05179 16.5858 4.4046 16.2122 4.30245 15.5889L4.1523 14.6728C4.08287 14.2492 3.75082 13.9171 3.32721 13.8477L2.4111 13.6976C1.78785 13.5954 1.41419 12.9482 1.63735 12.3574L1.96537 11.4889C2.11705 11.0874 1.99551 10.6338 1.66337 10.3618L0.945073 9.77375C0.45639 9.37366 0.456391 8.62634 0.945073 8.22625L1.66337 7.63816C1.99551 7.36623 2.11705 6.91264 1.96537 6.51107L1.63735 5.64263C1.41419 5.05179 1.78785 4.4046 2.4111 4.30245L3.32721 4.1523C3.75082 4.08287 4.08287 3.75082 4.1523 3.32721L4.30245 2.4111C4.4046 1.78785 5.05179 1.41419 5.64263 1.63735L6.51107 1.96537C6.91264 2.11705 7.36623 1.99551 7.63816 1.66337L8.22625 0.945073Z" fill="url(#paint0_linear_395_5521)"/>
<path d="M12.207 5.79297C12.5977 6.18335 12.5977 6.81665 12.207 7.20703L7.20703 12.207C6.81641 12.5977 6.18359 12.5977 5.79297 12.207C5.40234 11.8167 5.40234 11.1833 5.79297 10.793L10.793 5.79297C11.1836 5.40234 11.8164 5.40234 12.207 5.79297Z" fill="white"/>
<path d="M8.25 7C8.25 7.69043 7.69043 8.25 7 8.25C6.30957 8.25 5.75 7.69043 5.75 7C5.75 6.30957 6.30957 5.75 7 5.75C7.69043 5.75 8.25 6.30957 8.25 7Z" fill="white"/>
<path d="M11 12.25C11.6904 12.25 12.25 11.6904 12.25 11C12.25 10.3096 11.6904 9.75 11 9.75C10.3096 9.75 9.75 10.3096 9.75 11C9.75 11.6904 10.3096 12.25 11 12.25Z" fill="white"/>
<defs>
<linearGradient id="paint0_linear_395_5521" x1="0.952912" y1="-2.45352e-07" x2="17.0471" y2="18" gradientUnits="userSpaceOnUse">
<stop stop-color="#269441"/>
<stop offset="1" stop-color="#09551C"/>
</linearGradient>
</defs>
</svg>
