<svg width="14" height="14" viewBox="0 0 14 14" fill="none" xmlns="http://www.w3.org/2000/svg">
<path fill-rule="evenodd" clip-rule="evenodd" d="M8.46958 6.38624C9.51889 6.38624 10.397 5.65325 10.6198 4.67137H12.3893C12.6599 4.67137 12.8793 4.452 12.8793 4.1814C12.8793 3.9108 12.6599 3.69144 12.3893 3.69144H10.6198C10.397 2.70955 9.51889 1.97656 8.46958 1.97656C7.42028 1.97656 6.54218 2.70955 6.31938 3.69144H1.61008C1.33948 3.69144 1.12012 3.9108 1.12012 4.1814C1.12012 4.452 1.33948 4.67137 1.61008 4.67137H6.31938C6.54218 5.65325 7.42028 6.38624 8.46958 6.38624ZM8.46958 5.40631C9.14608 5.40631 9.6945 4.8579 9.6945 4.1814C9.6945 3.5049 9.14608 2.95649 8.46958 2.95649C7.79308 2.95649 7.24467 3.5049 7.24467 4.1814C7.24467 4.8579 7.79308 5.40631 8.46958 5.40631Z" fill="#8692A9"/>
<path fill-rule="evenodd" clip-rule="evenodd" d="M5.5298 12.0208C4.4805 12.0208 3.60239 11.2878 3.37959 10.306H1.61008C1.33948 10.306 1.12012 10.0866 1.12012 9.81599C1.12012 9.54539 1.33948 9.32603 1.61008 9.32603H3.37959C3.60239 8.34415 4.4805 7.61115 5.5298 7.61115C6.5791 7.61115 7.4572 8.34415 7.68 9.32603H12.3893C12.6599 9.32603 12.8793 9.54539 12.8793 9.81599C12.8793 10.0866 12.6599 10.306 12.3893 10.306H7.68C7.4572 11.2878 6.5791 12.0208 5.5298 12.0208ZM5.5298 11.0409C4.8533 11.0409 4.30489 10.4925 4.30489 9.81599C4.30489 9.13949 4.8533 8.59108 5.5298 8.59108C6.2063 8.59108 6.75471 9.13949 6.75471 9.81599C6.75471 10.4925 6.2063 11.0409 5.5298 11.0409Z" fill="#8692A9"/>
</svg>
