<svg width="18" height="18" viewBox="0 0 18 18" fill="none" xmlns="http://www.w3.org/2000/svg">
<path fill-rule="evenodd" clip-rule="evenodd" d="M6.23372 0C5.86553 0 5.56706 0.298477 5.56706 0.666667C5.56706 1.03486 5.86553 1.33333 6.23372 1.33333H8.23372V2.02738C4.12737 2.36615 0.900391 5.80622 0.900391 10C0.900391 14.4183 4.48211 18 8.90039 18C13.3187 18 16.9004 14.4183 16.9004 10C16.9004 5.80622 13.6734 2.36615 9.56706 2.02738V1.33333H11.5671C11.9352 1.33333 12.2337 1.03486 12.2337 0.666667C12.2337 0.298477 11.9352 0 11.5671 0H6.23372ZM15.5671 10C15.5671 13.6819 12.5823 16.6667 8.90039 16.6667C5.21849 16.6667 2.23372 13.6819 2.23372 10C2.23372 6.3181 5.21849 3.33333 8.90039 3.33333C12.5823 3.33333 15.5671 6.3181 15.5671 10Z" fill="#4F4F4F"/>
<path d="M16.7645 4.84016C17.1111 4.6127 17.2099 4.14535 16.9575 3.81646C16.415 3.10971 15.7819 2.47739 15.0745 1.93583C14.7453 1.68381 14.278 1.78318 14.051 2.1301C13.824 2.47701 13.9236 2.93979 14.2495 3.19601C14.788 3.6193 15.2744 4.10504 15.6983 4.643C15.955 4.96862 16.4179 5.06761 16.7645 4.84016Z" fill="#4F4F4F"/>
<path d="M8.89974 4.66732C9.83584 4.66732 10.7555 4.9137 11.5662 5.38171C12.3769 5.84972 13.0501 6.52286 13.5183 7.3335C13.9864 8.14414 14.2329 9.06371 14.2331 9.99981C14.2332 10.9359 13.987 11.8556 13.5191 12.6663L8.89974 10.0007L8.89974 4.66732Z" fill="#269441"/>
</svg>
