<svg width="14" height="14" viewBox="0 0 14 14" fill="none" xmlns="http://www.w3.org/2000/svg">
<g clip-path="url(#clip0_691_15055)">
<path d="M7.55537 4.46315C7.3084 4.03537 6.69095 4.03537 6.44397 4.46315L4.08225 8.55378C3.83527 8.98155 4.144 9.51628 4.63795 9.51628H9.3614C9.85535 9.51628 10.1641 8.98155 9.9171 8.55377L7.55537 4.46315Z" fill="#8692A9"/>
<path fill-rule="evenodd" clip-rule="evenodd" d="M0.583008 6.10232C0.583008 3.94091 0.583008 2.86021 1.08246 2.07321C1.33551 1.67445 1.67348 1.33649 2.07223 1.08343C2.85923 0.583984 3.93994 0.583984 6.10134 0.583984H7.89801C10.0594 0.583984 11.1401 0.583984 11.9271 1.08343C12.3259 1.33649 12.6638 1.67445 12.9169 2.07321C13.4163 2.86021 13.4163 3.94091 13.4163 6.10232V7.89898C13.4163 10.0604 13.4163 11.1411 12.9169 11.9281C12.6638 12.3268 12.3259 12.6648 11.9271 12.9179C11.1401 13.4173 10.0594 13.4173 7.89801 13.4173H6.10134C3.93994 13.4173 2.85923 13.4173 2.07223 12.9179C1.67348 12.6648 1.33551 12.3268 1.08246 11.9281C0.583008 11.1411 0.583008 10.0604 0.583008 7.89898V6.10232ZM6.10134 1.38607H7.89801C8.9947 1.38607 9.75928 1.38696 10.3499 1.44469C10.9281 1.5012 11.2538 1.60607 11.4973 1.76065C11.7964 1.95045 12.0499 2.20392 12.2397 2.50298C12.3943 2.74657 12.4991 3.07224 12.5556 3.65039C12.6134 4.24104 12.6143 5.00562 12.6143 6.10232V7.89898C12.6143 8.99568 12.6134 9.76026 12.5556 10.3509C12.4991 10.9291 12.3943 11.2547 12.2397 11.4983C12.0499 11.7974 11.7964 12.0509 11.4973 12.2406C11.2538 12.3952 10.9281 12.5001 10.3499 12.5566C9.75928 12.6143 8.9947 12.6152 7.89801 12.6152H6.10134C5.00464 12.6152 4.24007 12.6143 3.64941 12.5566C3.07127 12.5001 2.74559 12.3952 2.50201 12.2406C2.20294 12.0509 1.94947 11.7974 1.75968 11.4983C1.60509 11.2547 1.50023 10.9291 1.44372 10.3509C1.38599 9.76026 1.38509 8.99568 1.38509 7.89898V6.10232C1.38509 5.00562 1.38599 4.24104 1.44372 3.65039C1.50023 3.07224 1.60509 2.74657 1.75968 2.50298C1.94947 2.20392 2.20294 1.95045 2.50201 1.76065C2.74559 1.60607 3.07127 1.5012 3.64941 1.44469C4.24007 1.38696 5.00464 1.38607 6.10134 1.38607Z" fill="#8692A9"/>
</g>
<defs>
<clipPath id="clip0_691_15055">
<rect width="14" height="14" fill="white"/>
</clipPath>
</defs>
</svg>
