<svg width="14" height="14" viewBox="0 0 14 14" fill="none" xmlns="http://www.w3.org/2000/svg">
<path d="M7.00065 10.207C8.77256 10.207 10.209 8.77061 10.209 6.9987C10.209 5.22678 8.77256 3.79036 7.00065 3.79036C5.22874 3.79036 3.79232 5.22678 3.79232 6.9987C3.79232 8.77061 5.22874 10.207 7.00065 10.207Z" fill="#257E3E"/>
<path fill-rule="evenodd" clip-rule="evenodd" d="M0.583984 6.10036C0.583984 3.93896 0.583984 2.85826 1.08343 2.07125C1.33649 1.6725 1.67446 1.33453 2.07321 1.08148C2.86021 0.582031 3.94091 0.582031 6.10232 0.582031H7.89898C10.0604 0.582031 11.1411 0.582031 11.9281 1.08148C12.3268 1.33453 12.6648 1.6725 12.9179 2.07125C13.4173 2.85826 13.4173 3.93896 13.4173 6.10036V7.89703C13.4173 10.0584 13.4173 11.1391 12.9179 11.9261C12.6648 12.3249 12.3268 12.6629 11.9281 12.9159C11.1411 13.4154 10.0604 13.4154 7.89898 13.4154H6.10232C3.94091 13.4154 2.86021 13.4154 2.07321 12.9159C1.67446 12.6629 1.33649 12.3249 1.08343 11.9261C0.583984 11.1391 0.583984 10.0584 0.583984 7.89703V6.10036ZM6.10232 1.38411H7.89898C8.99568 1.38411 9.76026 1.38501 10.3509 1.44274C10.9291 1.49925 11.2547 1.60412 11.4983 1.7587C11.7974 1.94849 12.0509 2.20197 12.2406 2.50103C12.3952 2.74461 12.5001 3.07029 12.5566 3.64843C12.6143 4.23909 12.6152 5.00367 12.6152 6.10036V7.89703C12.6152 8.99373 12.6143 9.75831 12.5566 10.349C12.5001 10.9271 12.3952 11.2528 12.2406 11.4964C12.0509 11.7954 11.7974 12.0489 11.4983 12.2387C11.2547 12.3933 10.9291 12.4981 10.3509 12.5547C9.76026 12.6124 8.99568 12.6133 7.89898 12.6133H6.10232C5.00562 12.6133 4.24104 12.6124 3.65039 12.5547C3.07224 12.4981 2.74657 12.3933 2.50298 12.2387C2.20392 12.0489 1.95045 11.7954 1.76065 11.4964C1.60607 11.2528 1.5012 10.9271 1.44469 10.349C1.38696 9.75831 1.38607 8.99373 1.38607 7.89703V6.10036C1.38607 5.00367 1.38696 4.23909 1.44469 3.64843C1.5012 3.07029 1.60607 2.74461 1.76065 2.50103C1.95045 2.20197 2.20392 1.94849 2.50298 1.7587C2.74657 1.60412 3.07224 1.49925 3.65039 1.44274C4.24104 1.38501 5.00562 1.38411 6.10232 1.38411Z" fill="#257E3E"/>
</svg>
